<svg width="28" height="28" viewBox="0 0 28 28" fill="none" xmlns="http://www.w3.org/2000/svg">
<g clip-path="url(#clip0_1_1694)">
<g clip-path="url(#clip1_1_1694)">
<path fill-rule="evenodd" clip-rule="evenodd" d="M14 9.71429C11.6881 9.71429 9.81395 11.6331 9.81395 14C9.81395 16.3669 11.6881 18.2857 14 18.2857C16.3119 18.2857 18.186 16.3669 18.186 14C18.186 11.6331 16.3119 9.71429 14 9.71429ZM11.4884 14C11.4884 12.5798 12.6129 11.4286 14 11.4286C15.3871 11.4286 16.5116 12.5798 16.5116 14C16.5116 15.4202 15.3871 16.5714 14 16.5714C12.6129 16.5714 11.4884 15.4202 11.4884 14Z" fill="#D9D9D9"/>
<path fill-rule="evenodd" clip-rule="evenodd" d="M14 4C8.96097 4 5.56684 7.09051 3.59691 9.7107L3.56139 9.75794C3.11588 10.3503 2.70556 10.8959 2.42719 11.541C2.12909 12.2319 2 12.9848 2 14C2 15.0152 2.12909 15.7681 2.42719 16.459C2.70556 17.1041 3.11588 17.6497 3.56139 18.2421L3.59691 18.2893C5.56684 20.9095 8.96097 24 14 24C19.039 24 22.4332 20.9095 24.4031 18.2893L24.4386 18.2421C24.8841 17.6497 25.2944 17.1041 25.5728 16.459C25.8709 15.7681 26 15.0152 26 14C26 12.9848 25.8709 12.2319 25.5728 11.541C25.2944 10.8959 24.8841 10.3503 24.4386 9.75792L24.4031 9.7107C22.4332 7.09051 19.039 4 14 4ZM4.92378 10.7563C6.74266 8.33705 9.70273 5.71429 14 5.71429C18.2973 5.71429 21.2573 8.33705 23.0762 10.7563C23.5658 11.4075 23.8526 11.7966 24.0412 12.2338C24.2175 12.6423 24.3256 13.1416 24.3256 14C24.3256 14.8584 24.2175 15.3577 24.0412 15.7662C23.8526 16.2034 23.5658 16.5925 23.0762 17.2437C21.2573 19.663 18.2973 22.2857 14 22.2857C9.70273 22.2857 6.74266 19.663 4.92378 17.2437C4.4342 16.5925 4.14743 16.2034 3.9588 15.7662C3.78252 15.3577 3.67442 14.8584 3.67442 14C3.67442 13.1416 3.78252 12.6423 3.9588 12.2338C4.14743 11.7966 4.4342 11.4075 4.92378 10.7563Z" fill="#D9D9D9"/>
<path d="M3.5 21L4.44532 23.5547L7 24.5L4.44532 25.4453L3.5 28L2.55468 25.4453L0 24.5L2.55468 23.5547L3.5 21Z" fill="#D9D9D9"/>
<path d="M12.5 6.5L17.5 4L26 7.5L23 14.5L12.5 6.5Z" fill="#242339"/>
<path d="M21.5 0L23.2556 4.74441L28 6.5L23.2556 8.25559L21.5 13L19.7444 8.25559L15 6.5L19.7444 4.74441L21.5 0Z" fill="#D9D9D9"/>
</g>
</g>
<defs>
<clipPath id="clip0_1_1694">
<rect width="28" height="28" fill="white"/>
</clipPath>
<clipPath id="clip1_1_1694">
<rect width="28" height="28" fill="white"/>
</clipPath>
</defs>
</svg>
